<?xml version="1.0" encoding="UTF-8" standalone="no"?>
<svg
   xmlns:cc="http://creativecommons.org/ns#"
   xmlns:rdf="http://www.w3.org/1999/02/22-rdf-syntax-ns#"
   xmlns:svg="http://www.w3.org/2000/svg"
   xmlns="http://www.w3.org/2000/svg"
   version="1.1"
   x="0px" y="0px"
   viewBox="28.5 45 78.5 18"
   xml:space="preserve">
   <style type="text/css">
    rect {
        fill-opacity:1;
        stroke-width:0.10;
    }

    path {
        fill: #fff;
        stroke:#fff;
        stroke-width:0.3px;
        stroke-linecap:butt;
        stroke-linejoin:miter;
        stroke-opacity:1;
    }
    </style>
    <g>
        <g aria-label="b">
            <path d="m 34.3056,59.177 q -1.0797,0 -2.0001,-0.5487 -0.9204,-0.5487 -1.4337,-1.416 V 59 H 29.7921 V 46.078999 h 1.2036 V 51.7076 q 0.6195,-0.9381 1.4868,-1.5045 0.8673,-0.5841 2.0355,-0.5841 0.9558,0 1.7346,0.4071 0.7788,0.4071 1.3098,1.0974 0.5487,0.6726 0.8319,1.5399 0.3009,0.8496 0.3009,1.7523 0,0.9735 -0.3363,1.8408 -0.3363,0.8673 -0.9381,1.5222 -0.5841,0.6372 -1.3983,1.0266 -0.7965,0.3717 -1.7169,0.3717 z m -0.2832,-1.062 q 0.7611,0 1.3806,-0.3009 0.6372,-0.3186 1.0797,-0.8319 0.4602,-0.531 0.708,-1.1859 0.2655,-0.6726 0.2655,-1.3806 0,-0.7257 -0.2478,-1.3983 -0.2301,-0.6726 -0.6726,-1.1859 -0.4248,-0.531 -1.0266,-0.8319 -0.6018,-0.3186 -1.3275,-0.3186 -0.5487,0 -1.0266,0.1947 -0.4779,0.177 -0.885,0.4956 -0.4071,0.3186 -0.7434,0.7434 -0.3186,0.4071 -0.531,0.8673 v 2.8674 q 0.0708,0.4779 0.3717,0.9027 0.3186,0.4071 0.7611,0.708 0.4425,0.3009 0.9381,0.4779 0.4956,0.177 0.9558,0.177 z" />
        </g>
        <g aria-label="board.js">
            <path d="m 53.8056,59.177 q -1.0797,0 -2.0001,-0.5487 -0.9204,-0.5487 -1.4337,-1.416 V 59 H 49.2921 V 46.078999 h 1.2036 V 51.7076 q 0.6195,-0.9381 1.4868,-1.5045 0.8673,-0.5841 2.0355,-0.5841 0.9558,0 1.7346,0.4071 0.7788,0.4071 1.3098,1.0974 0.5487,0.6726 0.8319,1.5399 0.3009,0.8496 0.3009,1.7523 0,0.9735 -0.3363,1.8408 -0.3363,0.8673 -0.9381,1.5222 -0.5841,0.6372 -1.3983,1.0266 -0.7965,0.3717 -1.7169,0.3717 z m -0.2832,-1.062 q 0.7611,0 1.3806,-0.3009 0.6372,-0.3186 1.0797,-0.8319 0.4602,-0.531 0.708,-1.1859 0.2655,-0.6726 0.2655,-1.3806 0,-0.7257 -0.2478,-1.3983 -0.2301,-0.6726 -0.6726,-1.1859 -0.4248,-0.531 -1.0266,-0.8319 -0.6018,-0.3186 -1.3275,-0.3186 -0.5487,0 -1.0266,0.1947 -0.4779,0.177 -0.885,0.4956 -0.4071,0.3186 -0.7434,0.7434 -0.3186,0.4071 -0.531,0.8673 v 2.8674 q 0.0708,0.4779 0.3717,0.9027 0.3186,0.4071 0.7611,0.708 0.4425,0.3009 0.9381,0.4779 0.4956,0.177 0.9558,0.177 z" />
            <path d="m 63.364248,59.177 q -1.0089,0 -1.8585,-0.3717 -0.8319,-0.3894 -1.4514,-1.0443 -0.6018,-0.6549 -0.9381,-1.5222 -0.3363,-0.8673 -0.3363,-1.8231 0,-0.9735 0.3363,-1.8408 0.354,-0.8673 0.9558,-1.5222 0.6195,-0.6549 1.4514,-1.0443 0.8496,-0.3894 1.8408,-0.3894 0.991201,0 1.823101,0.3894 0.8496,0.3894 1.4514,1.0443 0.6195,0.6549 0.9558,1.5222 0.354,0.8673 0.354,1.8408 0,0.9558 -0.354,1.8231 -0.3363,0.8673 -0.9558,1.5222 -0.6018,0.6549 -1.4514,1.0443 -0.8319,0.3717 -1.823101,0.3717 z m -3.3453,-4.7436 q 0,0.7788 0.2478,1.4514 0.2655,0.6549 0.708,1.1682 0.4602,0.4956 1.062,0.7788 0.6195,0.2832 1.3098,0.2832 0.690301,0 1.292101,-0.2832 0.6195,-0.3009 1.0797,-0.7965 0.4602,-0.5133 0.7257,-1.1859 0.2655,-0.6726 0.2655,-1.4514 0,-0.7611 -0.2655,-1.4337 -0.2655,-0.6903 -0.7257,-1.1859 -0.4602,-0.5133 -1.062,-0.7965 -0.6018,-0.3009 -1.292101,-0.3009 -0.6903,0 -1.3098,0.3009 -0.6018,0.2832 -1.062,0.7965 -0.4425,0.5133 -0.708,1.2036 -0.2655,0.6726 -0.2655,1.4514 z" />
            <path d="m 71.568294,59.177 q -0.708001,0 -1.292101,-0.2124 -0.5841,-0.2301 -1.0089,-0.6195 -0.4071,-0.3894 -0.6372,-0.9027 -0.2301,-0.5133 -0.2301,-1.0797 0,-0.6372 0.2832,-1.1505 0.2832,-0.531 0.7965,-0.9027 0.5133,-0.3717 1.2213,-0.5664 0.725701,-0.2124 1.593001,-0.2124 0.6903,0 1.416,0.1239 0.7257,0.1239 1.2921,0.354 v -0.8319 q 0,-1.2213 -0.708,-1.9293 -0.6903,-0.7257 -1.8762,-0.7257 -0.7434,0 -1.4868,0.2832 -0.725701,0.2832 -1.486801,0.8142 l -0.4248,-0.7965 q 0.9027,-0.6018 1.7523,-0.9027 0.849601,-0.3009 1.770001,-0.3009 1.6815,0 2.6727,0.9735 0.9912,0.9735 0.9912,2.6904 v 4.1595 q 0,0.4956 0.4248,0.4956 V 59 q -0.1416,0.0177 -0.2655,0.0177 -0.1239,0.0177 -0.2124,0.0177 -0.354,0 -0.6549,-0.2124 -0.2832,-0.2124 -0.3186,-0.6372 l -0.0354,-0.7257 q -0.6018,0.8142 -1.593,1.2744 -0.9735,0.4425 -1.9824,0.4425 z m 0.3009,-0.9204 q 0.7965,0 1.5753,-0.3363 0.7965,-0.354 1.2567,-0.9558 0.1239,-0.1593 0.2124,-0.3363 0.0885,-0.1947 0.0885,-0.354 v -1.5045 q -0.6018,-0.2301 -1.2567,-0.354 -0.6549,-0.1239 -1.2744,-0.1239 -1.2921,0 -2.106301,0.531 -0.7965,0.5133 -0.7965,1.4337 0,0.3717 0.1416,0.7257 0.1416,0.354 0.4248,0.6372 0.3009,0.2832 0.7257,0.4602 0.424801,0.177 1.008901,0.177 z" />
            <path d="m 82.641953,50.8403 q -1.2213,0.0354 -2.124001,0.6726 -0.9027,0.6372 -1.2744,1.7523 V 59 h -1.2036 v -9.2217 h 1.1328 v 2.2125 q 0.4779,-0.9735 1.2567,-1.6107 0.778801,-0.6549 1.681501,-0.6549 0.1593,0 0.3009,0 0.1416,0 0.2301,0.0177 z" />
            <path d="m 86.870965,59.177 q -0.9558,0 -1.77,-0.3894 -0.8142,-0.4071 -1.416,-1.062 -0.5841,-0.6549 -0.9204,-1.5045 -0.3186,-0.8673 -0.3186,-1.8054 0,-0.9735 0.3186,-1.8408 0.3186,-0.885 0.8673,-1.5399 0.5664,-0.6549 1.3275,-1.0266 0.7788,-0.3894 1.6992,-0.3894 1.1682,0 2.0709,0.6195 0.9027,0.6018 1.4337,1.4691 v -5.628601 h 1.2036 V 57.4424 q 0,0.4956 0.4248,0.4956 V 59 q -0.3009,0.0531 -0.4779,0.0531 -0.4425,0 -0.7257,-0.2478 -0.2832,-0.2655 -0.2832,-0.6195 v -0.9735 q -0.5664,0.9027 -1.5045,1.4337 -0.9204,0.531 -1.9293,0.531 z m 0.2478,-1.062 q 0.4602,0 0.9558,-0.177 0.5133,-0.177 0.9381,-0.4779 0.4425,-0.3186 0.7611,-0.7257 0.3186,-0.4248 0.3894,-0.9027 V 52.982 q -0.177,-0.4779 -0.531,-0.885 -0.3363,-0.4248 -0.7788,-0.7434 -0.4248,-0.3186 -0.9204,-0.4956 -0.4779,-0.177 -0.9558,-0.177 -0.7434,0 -1.3629,0.3186 -0.6018,0.3186 -1.0266,0.8496 -0.4248,0.5133 -0.6726,1.1859 -0.2301,0.6726 -0.2301,1.3806 0,0.7434 0.2655,1.416 0.2655,0.6726 0.7257,1.1859 0.4602,0.4956 1.0797,0.7965 0.6372,0.3009 1.3629,0.3009 z" />
            <path d="m 93.151793,59 v -1.7346 h 1.0266 V 59 Z" />
            <path d="m 94.324515,62.2037 q -0.5841,0 -1.0974,-0.1593 -0.5133,-0.1593 -0.9204,-0.531 l 0.5841,-0.8142 q 0.2832,0.2478 0.6195,0.3363 0.3363,0.0885 0.6726,0.0885 0.3186,0 0.6018,-0.1239 0.3009,-0.1239 0.531,-0.354 0.2301,-0.2124 0.3717,-0.5133 0.1416,-0.3009 0.1416,-0.6549 v -9.6996 h 1.2036 v 9.6288 q 0,0.6195 -0.2301,1.1328 -0.2301,0.5133 -0.6195,0.885 -0.3717,0.3717 -0.8673,0.5664 -0.4779,0.2124 -0.9912,0.2124 z m 1.5045,-14.3547 v -1.770001 h 1.2036 V 47.849 Z" />
            <path d="m 101.92925,59.177 q -1.0797,0 -2.1063,-0.354 -1.0266,-0.354 -1.77,-1.0266 l 0.5487,-0.8142 q 0.7788,0.6372 1.5753,0.9558 0.8142,0.3186 1.7346,0.3186 1.1151,0 1.77,-0.4425 0.6726,-0.4602 0.6726,-1.2921 0,-0.3894 -0.177,-0.6372 -0.177,-0.2655 -0.531,-0.4602 -0.3363,-0.1947 -0.8673,-0.3363 -0.5133,-0.1593 -1.2036,-0.3186 -0.7965,-0.1947 -1.3806,-0.3894 -0.5841,-0.1947 -0.9735,-0.4425 -0.3717,-0.2478 -0.5664,-0.6018 -0.177,-0.3717 -0.177,-0.9204 0,-0.6903 0.2655,-1.2213 0.2832,-0.531 0.7434,-0.8673 0.4779,-0.354 1.0974,-0.531 0.6372,-0.177 1.3452,-0.177 1.062,0 1.9293,0.354 0.8673,0.3363 1.3983,0.9027 l -0.5841,0.708 q -0.5133,-0.531 -1.2567,-0.7965 -0.7257,-0.2655 -1.5222,-0.2655 -0.4779,0 -0.885,0.1062 -0.4071,0.0885 -0.7257,0.3009 -0.3009,0.2124 -0.4779,0.5487 -0.177,0.3186 -0.177,0.7611 0,0.3717 0.1239,0.6018 0.1239,0.2301 0.4071,0.4071 0.2832,0.1593 0.708,0.3009 0.4425,0.1239 1.062,0.2655 0.885,0.2124 1.5576,0.4248 0.6726,0.2124 1.1151,0.4956 0.4602,0.2832 0.6903,0.6903 0.2301,0.4071 0.2301,0.9912 0,1.2744 -0.9735,2.0178 -0.9735,0.7434 -2.6196,0.7434 z" />
        </g>
        <g aria-label="ill" transform="matrix(0.8,0,0,0.8,21.1,5.75)">
            <rect style="fill:#2acefd" x="23.37" y="54.65" width="3.3" height="11.8" />
            <rect style="fill:#f87070" x="26.65" y="50.2" width="3.3" height="16.25" />
            <rect style="fill:#1f77b4" x="29.95" y="50.2" width="3.3" height="16.25" />
            <path d="M 22.75,66.6 H 33.9" />
        </g>
    </g>
</svg>