<?xml version="1.0" encoding="utf-8"?>
<svg width="800px" height="800px" viewBox="-1 0 19 19" xmlns="http://www.w3.org/2000/svg">
      <defs>
<style type="text/css"><![CDATA[
path {
    fill: lightgreen;
]]></style>
</defs>
    <path fill-rule="evenodd" clip-rule="evenodd" d="M10 16L12 14V10L13.6569 8.34314C15.1571 6.84285 16 4.80802 16 2.68629V0H13.3137C11.192 0 9.15714 0.842855 7.65685 2.34315L6 4H2L0 6L10 16ZM10.5 7C11.3284 7 12 6.32843 12 5.5C12 4.67157 11.3284 4 10.5 4C9.67157 4 9 4.67157 9 5.5C9 6.32843 9.67157 7 10.5 7Z" />
    <path d="M4.9274 13.7558L2.24423 11.0726L0 15L1 16L4.9274 13.7558Z" />
</svg>